<?xml version="1.0" encoding="UTF-8"?>
<svg width="24px" height="24px" viewBox="0 0 24 24" version="1.1" xmlns="http://www.w3.org/2000/svg">
    <g stroke="none" stroke-width="1" fill="none" fill-rule="evenodd">
        <path d="M3,3 L21,3 C22.1045695,3 23,3.8954305 23,5 L23,19 C23,20.1045695 22.1045695,21 21,21 L3,21 C1.8954305,21 1,20.1045695 1,19 L1,5 C1,3.8954305 1.8954305,3 3,3 Z M3,5 L3,19 L21,19 L21,5 L3,5 Z M9,8 C10.1045695,8 11,8.8954305 11,10 C11,11.1045695 10.1045695,12 9,12 C7.8954305,12 7,11.1045695 7,10 C7,8.8954305 7.8954305,8 9,8 Z M5,17 L19,17 L15,11 L12,15 L9,13 L5,17 Z" fill="#FFFFFF"></path>
    </g>
</svg>
