<?xml version="1.0" encoding="UTF-8"?>
<svg width="24px" height="24px" viewBox="0 0 24 24" version="1.1" xmlns="http://www.w3.org/2000/svg">
    <g stroke="none" stroke-width="1" fill="none" fill-rule="evenodd">
        <path d="M3,3 L9,3 C10.1045695,3 11,3.8954305 11,5 L11,9 C11,10.1045695 10.1045695,11 9,11 L3,11 C1.8954305,11 1,10.1045695 1,9 L1,5 C1,3.8954305 1.8954305,3 3,3 Z M15,3 L21,3 C22.1045695,3 23,3.8954305 23,5 L23,9 C23,10.1045695 22.1045695,11 21,11 L15,11 C13.8954305,11 13,10.1045695 13,9 L13,5 C13,3.8954305 13.8954305,3 15,3 Z M3,13 L9,13 C10.1045695,13 11,13.8954305 11,15 L11,19 C11,20.1045695 10.1045695,21 9,21 L3,21 C1.8954305,21 1,20.1045695 1,19 L1,15 C1,13.8954305 1.8954305,13 3,13 Z M15,13 L21,13 C22.1045695,13 23,13.8954305 23,15 L23,19 C23,20.1045695 22.1045695,21 21,21 L15,21 C13.8954305,21 13,20.1045695 13,19 L13,15 C13,13.8954305 13.8954305,13 15,13 Z" fill="#FFFFFF"></path>
    </g>
</svg>
